<?xml version="1.0" standalone="no"?>
<!DOCTYPE svg PUBLIC "-//W3C//DTD SVG 20010904//EN"
 "http://www.w3.org/TR/2001/REC-SVG-20010904/DTD/svg10.dtd">
<svg version="1.0" xmlns="http://www.w3.org/2000/svg"
 width="1024.000000pt" height="1024.000000pt" viewBox="0 0 1024.000000 1024.000000"
 preserveAspectRatio="xMidYMid meet">

<g transform="translate(0.000000,1024.000000) scale(0.100000,-0.100000)"
fill="#000000" stroke="none">
<path d="M4905 8459 c-226 -23 -396 -72 -600 -174 -375 -187 -659 -518 -793
-925 -76 -230 -92 -375 -92 -837 l0 -353 -77 0 c-297 -1 -576 -226 -653 -526
-19 -75 -20 -117 -20 -1583 0 -1003 4 -1528 11 -1571 38 -238 190 -443 411
-554 172 -87 10 -81 2028 -81 2026 0 1850 -7 2040 87 89 44 117 65 196 142 81
81 97 103 142 196 27 58 56 130 64 160 11 45 13 344 13 1610 l0 1555 -28 80
c-98 281 -332 463 -620 483 l-98 7 1 305 c1 586 -28 771 -165 1057 -174 364
-480 656 -840 804 -110 45 -279 91 -395 108 -103 16 -416 22 -525 10z m474
-335 c252 -43 436 -123 617 -268 257 -206 421 -481 475 -794 17 -100 19 -164
19 -503 l0 -389 -1371 0 -1371 0 5 423 c4 384 6 430 25 514 56 246 137 406
293 584 310 351 814 518 1308 433z m1639 -2296 c71 -34 177 -140 213 -213 l31
-63 0 -1534 0 -1533 -22 -58 c-47 -124 -188 -232 -337 -256 -49 -9 -548 -11
-1818 -9 l-1750 3 -62 23 c-124 47 -218 136 -266 252 l-22 55 0 1530 0 1530
28 53 c46 91 125 169 222 221 l40 21 1849 0 1850 0 44 -22z"/>
<path d="M3944 5451 c-101 -61 -148 -335 -149 -871 l-1 -325 -26 -66 c-42
-105 -58 -203 -58 -357 0 -342 104 -608 334 -850 189 -199 563 -351 948 -383
375 -32 859 100 1113 305 214 172 369 442 416 725 6 36 11 129 10 206 0 152
-13 235 -59 369 -27 80 -27 83 -20 266 13 368 -29 787 -91 908 -33 65 -64 86
-134 90 -59 4 -65 2 -127 -39 -35 -24 -183 -160 -330 -306 l-267 -262 -124 15
c-137 18 -449 14 -568 -6 l-65 -11 -275 275 c-152 151 -298 288 -325 305 -42
26 -60 31 -110 31 -42 0 -71 -6 -92 -19z m578 -768 c140 -147 154 -154 229
-114 119 64 590 67 711 5 15 -8 48 -17 74 -21 l46 -6 283 283 c155 155 285
278 288 273 10 -16 26 -166 33 -308 4 -83 1 -221 -6 -336 l-13 -196 31 -85
c165 -458 -9 -958 -405 -1157 -203 -103 -312 -95 -452 35 -80 74 -125 160
-126 240 l0 61 106 119 c135 151 159 187 159 233 0 29 -8 44 -36 72 l-35 34
-295 0 -296 0 -34 -37 c-61 -67 -50 -98 93 -258 59 -67 117 -133 127 -147 49
-64 0 -210 -105 -313 -120 -119 -215 -138 -374 -75 -255 100 -429 295 -510
571 -20 67 -28 120 -32 214 -7 151 6 238 53 380 l35 105 -7 270 c-6 250 3 467
22 564 l7 34 151 -154 c83 -85 208 -214 278 -286z m613 -1692 c9 -28 71 -80
124 -105 l46 -21 -85 -5 c-101 -6 -280 0 -280 9 1 3 23 16 49 29 27 12 66 42
87 66 45 51 50 53 59 27z"/>
</g>
</svg>
